<svg width="65" height="65" viewBox="0 0 65 65" fill="none" xmlns="http://www.w3.org/2000/svg">
<path d="M1.72003 21.0234C2.28982 21.386 2.95898 21.579 3.65797 21.579C4.30063 21.579 4.92011 21.416 5.45677 21.1032C6.51021 20.4911 7.07668 19.4697 7.5769 18.5647C7.68291 18.3718 7.78891 18.1821 7.89823 17.9958C8.9318 16.2558 10.7438 15.3176 12.6652 14.3261L13.0959 14.1032L13.4801 13.9036C15.6798 12.7557 17.9556 11.5647 20.1884 11.5547H20.5462C22.7723 11.568 25.0481 12.7557 27.2511 13.9036L27.6353 14.1032L28.066 14.3261C29.9874 15.3176 31.7994 16.2558 32.833 17.9958C32.9423 18.1821 33.0483 18.3718 33.1543 18.5647C33.6545 19.4663 34.221 20.4911 35.2745 21.1032C35.8111 21.4127 36.4306 21.579 37.0733 21.579C37.7722 21.579 38.4447 21.386 39.0112 21.0234C40.1209 20.3147 40.7736 18.9606 40.6377 17.6564C40.5019 16.3523 39.5843 15.1612 38.3553 14.6954C37.7093 14.4492 37.0699 14.4193 36.5863 14.4193C36.3776 14.4193 36.1656 14.4259 35.9569 14.4326C35.7714 14.4392 35.5825 14.4459 35.4003 14.4459H35.354C34.5887 14.4425 33.787 14.2363 33.1742 14.0599C31.4715 13.5675 29.8549 12.7025 28.4768 11.9306C27.43 11.3451 26.6117 10.8427 25.9061 10.347C25.8001 10.2738 25.6908 10.1973 25.5748 10.1207C24.9686 9.70819 24.2166 9.19916 24.0146 8.69345C23.9549 8.54373 23.9019 8.36407 23.8489 8.17443C23.7164 7.70532 23.5508 7.11977 23.1168 6.61073C22.5238 5.91871 21.6625 5.46956 20.7449 5.36975C20.7085 5.3631 20.6687 5.35977 20.6323 5.35644L20.417 5.34646C20.417 5.34646 20.3871 5.34646 20.3739 5.34646C20.3606 5.34646 20.3441 5.34646 20.3275 5.34646L20.1122 5.35644C20.0724 5.35644 20.036 5.3631 19.9962 5.36975C19.0753 5.46624 18.214 5.91539 17.6243 6.61073C17.1904 7.11977 17.0247 7.702 16.8922 8.17443C16.8392 8.36407 16.7895 8.54373 16.7266 8.69345C16.5245 9.19916 15.7692 9.71152 15.1663 10.1207C15.0504 10.1973 14.9411 10.2738 14.835 10.347C14.1261 10.8427 13.3112 11.3451 12.2644 11.9306C10.8863 12.7025 9.27301 13.5675 7.56696 14.0599C6.95411 14.2363 6.15244 14.4425 5.3872 14.4459H5.34082C5.15531 14.4459 4.9698 14.4392 4.78429 14.4326C4.57559 14.4259 4.36357 14.4193 4.15487 14.4193C3.67122 14.4193 3.03518 14.4492 2.38589 14.6954C1.15687 15.1645 0.23925 16.3523 0.103429 17.6564C-0.0323916 18.9606 0.620212 20.3147 1.72997 21.0234H1.72003Z" fill="#39606F"/>
<path d="M4.79099 37.3092L4.80424 36.8734C4.88374 34.3781 4.96656 31.7997 6.05644 29.8434L6.23202 29.534C7.34177 27.5977 9.50497 26.2036 11.5953 24.8562L11.9597 24.62L12.3672 24.3571C14.1858 23.176 15.9018 22.0582 17.9391 22.0282C18.0054 22.0282 18.0716 22.0282 18.1379 22.0282C18.2903 22.0282 18.4427 22.0282 18.595 22.0315C18.7574 22.0315 18.923 22.0349 19.0853 22.0349C20.0029 22.0349 20.9769 21.965 21.8647 21.446C23.0009 20.7839 23.7165 19.4531 23.6403 18.1323C23.5674 16.8148 22.7061 15.5705 21.5036 15.0415C21.0597 14.8452 20.5827 14.7487 20.0858 14.7487C19.241 14.7487 18.4261 15.0381 17.7934 15.5605C17.1043 16.1294 16.7167 16.8713 16.3755 17.5268C16.2761 17.7131 16.1867 17.8927 16.0873 18.0591C15.7064 18.7245 15.1333 19.32 14.6728 19.7692C13.4007 21.0102 11.8471 21.9883 10.4888 22.8067C9.45859 23.4289 8.61385 23.8914 7.83205 24.2607C7.71611 24.3172 7.59354 24.3738 7.47097 24.437C6.87137 24.7298 6.12601 25.0957 5.57941 25.0957C5.52972 25.0957 5.48666 25.0957 5.44359 25.0858C5.28127 25.0625 5.09907 25.0192 4.90693 24.9693C4.55247 24.8795 4.14832 24.7797 3.70111 24.7797C3.52553 24.7797 3.34996 24.7963 3.18432 24.8262C2.28658 24.9959 1.46834 25.5249 0.92837 26.2802C0.901868 26.3101 0.878679 26.3434 0.858803 26.38L0.742858 26.563C0.726294 26.5896 0.713044 26.6162 0.699793 26.6428L0.600411 26.8358C0.583848 26.8724 0.567284 26.909 0.554034 26.9456C0.186323 27.7973 0.153196 28.7754 0.467903 29.6371C0.69648 30.2659 1.12713 30.7018 1.47165 31.0511C1.61079 31.1942 1.7433 31.3272 1.84599 31.4537C2.19051 31.8862 2.2667 32.8011 2.32965 33.5364C2.3429 33.6761 2.35283 33.8092 2.36609 33.939C2.4489 34.804 2.48866 35.7688 2.48534 36.9765C2.48203 38.5668 2.44228 40.4067 2.03481 42.1401C1.88906 42.7622 1.67042 43.564 1.29939 44.2361C1.20664 44.4058 1.10063 44.5755 0.991311 44.7551C0.607037 45.3839 0.169759 46.0992 0.037251 46.9842C-0.158199 48.2917 0.428151 49.6824 1.49816 50.451C2.09113 50.8768 2.83318 51.1097 3.58516 51.1097C4.16489 51.1097 4.73798 50.97 5.23489 50.7105C6.40096 50.0983 7.17283 48.8008 7.15626 47.4799C7.1397 46.2556 6.52353 45.2508 5.98025 44.3625C5.86431 44.1729 5.74836 43.9866 5.64235 43.7969C4.62535 42.0236 4.69823 39.9709 4.77774 37.7983L4.7943 37.3126L4.79099 37.3092Z" fill="#39606F"/>
<path d="M30.0967 58.2994C29.2089 57.7804 28.235 57.7105 27.3174 57.7105C27.155 57.7105 26.9927 57.7105 26.8304 57.7138C26.678 57.7138 26.5256 57.7171 26.3732 57.7171C26.307 57.7171 26.2407 57.7171 26.1745 57.7171C24.1372 57.6839 22.4212 56.5693 20.6025 55.3882L20.195 55.1254L19.8273 54.8892C17.737 53.5417 15.5705 52.1477 14.4607 50.2081L14.2852 49.8953C13.1986 47.9457 13.1158 45.3672 13.0363 42.872L13.023 42.4361L13.0065 41.9504C12.927 39.7778 12.8541 37.7251 13.8711 35.9518C13.9804 35.7621 14.093 35.5758 14.209 35.3862C14.7523 34.4979 15.3684 33.4931 15.385 32.2688C15.4015 30.9479 14.6297 29.6504 13.4636 29.0382C12.9667 28.7754 12.3936 28.639 11.8139 28.639C11.0619 28.639 10.3198 28.8719 9.72688 29.2977C8.65687 30.0663 8.07052 31.457 8.26597 32.7645C8.39848 33.6495 8.83576 34.3648 9.22003 34.9936C9.32935 35.1732 9.43536 35.3462 9.52811 35.5126C9.89914 36.1813 10.1178 36.9831 10.2635 37.6086C10.671 39.342 10.7107 41.1818 10.7141 42.7722C10.7141 43.9799 10.6809 44.9447 10.5948 45.8097C10.5816 45.9395 10.5716 46.0726 10.5584 46.2123C10.4954 46.9476 10.4192 47.8625 10.0747 48.295C9.97202 48.4248 9.83951 48.5579 9.70037 48.7009C9.35585 49.0503 8.9252 49.4861 8.69662 50.1149C8.38192 50.9766 8.41173 51.9547 8.78275 52.8065C8.796 52.8431 8.81257 52.8797 8.82913 52.9163L8.92851 53.1092C8.94176 53.1358 8.95833 53.1624 8.97158 53.1891L9.08752 53.3721C9.11071 53.4053 9.1339 53.4386 9.15709 53.4719C9.69706 54.2271 10.5153 54.7528 11.413 54.9224C11.5787 54.9557 11.7543 54.969 11.9298 54.969C12.377 54.969 12.7812 54.8692 13.1357 54.7794C13.3278 54.7328 13.51 54.6862 13.6723 54.6629C13.7154 54.6563 13.7618 54.653 13.8081 54.653C14.3514 54.653 15.1001 55.0189 15.6997 55.3117C15.8256 55.3716 15.9481 55.4315 16.0641 55.488C16.8459 55.8573 17.6906 56.3198 18.7209 56.942C20.0791 57.7604 21.6327 58.7385 22.9048 59.9795C23.362 60.4253 23.9384 61.0242 24.3194 61.6896C24.4154 61.856 24.5082 62.0356 24.6042 62.2219C24.9455 62.8774 25.333 63.6193 26.0221 64.1882C26.6548 64.7105 27.4697 65 28.3145 65C28.8114 65 29.2884 64.9002 29.7323 64.7072C30.9381 64.1782 31.7961 62.9339 31.869 61.6164C31.9419 60.2989 31.2297 58.9681 30.0934 58.3027L30.0967 58.2994Z" fill="#39606F"/>
<path d="M55.2867 43.9433C54.7169 43.574 54.0444 43.381 53.3421 43.381C52.6994 43.381 52.0766 43.5473 51.54 43.8634C50.4865 44.4822 49.9201 45.5169 49.4199 46.4286C49.3139 46.6215 49.2078 46.8145 49.0985 47.0041C48.065 48.7674 46.2496 49.7156 44.3315 50.7204L43.9009 50.9466L43.5166 51.1496C41.317 52.3107 39.0411 53.5151 36.8117 53.5251H36.4572C34.2344 53.5118 31.9586 52.3107 29.7589 51.1496L29.3747 50.9466L28.944 50.7204C27.0226 49.7156 25.2106 48.7674 24.177 47.0041C24.0677 46.8178 23.9617 46.6248 23.8557 46.4286C23.3555 45.5169 22.789 44.4822 21.7356 43.8634C21.1989 43.5473 20.5761 43.381 19.9334 43.381C19.2311 43.381 18.5587 43.5773 17.9889 43.9433C16.8824 44.6586 16.2331 46.0227 16.369 47.3368C16.5048 48.651 17.4224 49.8521 18.6481 50.3245C19.2974 50.574 19.9334 50.6073 20.4204 50.6073C20.6291 50.6073 20.8411 50.6006 21.0531 50.594C21.2386 50.5873 21.4275 50.5807 21.6097 50.5807H21.656C22.4213 50.584 23.2196 50.7936 23.8325 50.9733C25.5352 51.4723 27.1485 52.3473 28.5266 53.1292C29.5734 53.7214 30.3917 54.2304 31.0973 54.7328C31.2033 54.806 31.3126 54.8825 31.4285 54.9624C32.0348 55.3782 32.7867 55.8973 32.9921 56.4129C33.0518 56.566 33.1048 56.749 33.1578 56.9386C33.2903 57.411 33.4559 58.0033 33.8866 58.5123C34.4795 59.2143 35.3408 59.6668 36.2585 59.7666C36.2982 59.7732 36.338 59.7766 36.3777 59.7799L36.5931 59.7899C36.5931 59.7899 36.6229 59.7899 36.6361 59.7899C36.6494 59.7899 36.6659 59.7899 36.6825 59.7899L36.8978 59.7799C36.9376 59.7799 36.9773 59.7732 37.0171 59.7666C37.938 59.6668 38.7993 59.2143 39.389 58.5123C39.8196 57.9999 39.9853 57.411 40.1178 56.9386C40.1708 56.7456 40.2238 56.566 40.2834 56.4129C40.4888 55.8973 41.2408 55.3816 41.847 54.9624C41.963 54.8825 42.0723 54.806 42.1783 54.7328C42.8839 54.2337 43.7021 53.7247 44.7489 53.1292C46.127 52.3473 47.7403 51.4723 49.443 50.9733C50.0559 50.7936 50.8576 50.5873 51.6195 50.584H51.6659C51.8514 50.584 52.0369 50.5907 52.2224 50.5973C52.4311 50.604 52.6431 50.6106 52.8551 50.6106C53.3388 50.6106 53.9781 50.5773 54.6274 50.3278C55.8565 49.8554 56.7708 48.6543 56.9066 47.3402C57.0424 46.026 56.3898 44.6619 55.2867 43.9466V43.9433Z" fill="#39606F"/>
<path d="M55.5052 14.5358C54.9122 14.1099 54.1701 13.877 53.4181 13.877C52.8384 13.877 52.2653 14.0168 51.7684 14.2763C50.6023 14.8884 49.8305 16.186 49.847 17.5068C49.8636 18.7311 50.4798 19.7359 51.0231 20.6242C51.139 20.8139 51.2549 21.0002 51.361 21.1898C52.378 22.9631 52.3051 25.0159 52.2256 27.1884L52.209 27.6742L52.1958 28.11C52.1163 30.6053 52.0334 33.1837 50.9436 35.14L50.768 35.4494C49.6582 37.3858 47.495 38.7798 45.4047 40.1272L45.0403 40.3634L44.6328 40.6263C42.8142 41.8074 41.0982 42.9253 39.0609 42.9552C38.9946 42.9552 38.9284 42.9552 38.8621 42.9552C38.7097 42.9552 38.5573 42.9552 38.4049 42.9519C38.2426 42.9519 38.0803 42.9485 37.9147 42.9485C36.997 42.9485 36.0264 43.0184 35.1353 43.5374C33.999 44.1995 33.2835 45.5303 33.3597 46.8511C33.4326 48.1686 34.2939 49.4129 35.4964 49.9419C35.9403 50.1382 36.4173 50.2347 36.9142 50.2347C37.759 50.2347 38.5739 49.9453 39.2066 49.4229C39.8957 48.854 40.2833 48.1121 40.6245 47.4567C40.7238 47.2703 40.8133 47.0907 40.9127 46.9243C41.2936 46.2589 41.8667 45.6634 42.3272 45.2142C43.5993 43.9733 45.1529 42.9951 46.5112 42.1767C47.5414 41.5545 48.3861 41.0921 49.1679 40.7228C49.2839 40.6662 49.4065 40.6096 49.529 40.5464C50.1286 40.2537 50.874 39.8877 51.4206 39.8877C51.4703 39.8877 51.5133 39.8877 51.5564 39.8977C51.7187 39.9209 51.9009 39.9642 52.0931 40.0141C52.4475 40.1039 52.8517 40.2037 53.2989 40.2037C53.4745 40.2037 53.65 40.1871 53.8157 40.1572C54.7134 39.9875 55.5317 39.4585 56.0716 38.7033C56.0948 38.6733 56.118 38.64 56.1412 38.6068L56.2571 38.4238C56.2737 38.3972 56.287 38.3739 56.3002 38.3473L56.3996 38.1543C56.4195 38.1177 56.4327 38.0811 56.446 38.0445C56.8137 37.1928 56.8468 36.2146 56.5321 35.3529C56.3002 34.7241 55.8729 34.2883 55.5283 33.939C55.3892 33.7959 55.2567 33.6628 55.154 33.5331C54.8095 33.1006 54.7333 32.1856 54.6703 31.4537C54.6571 31.3139 54.6472 31.1775 54.6339 31.0511C54.5511 30.1894 54.5113 29.2246 54.5147 28.0135C54.518 26.4232 54.5577 24.5834 54.9652 22.85C55.1109 22.2278 55.3296 21.426 55.7006 20.754C55.7934 20.5843 55.8994 20.4146 56.0087 20.2316C56.393 19.6028 56.8302 18.8875 56.9627 18.0025C57.1582 16.695 56.5718 15.3043 55.5018 14.5358H55.5052Z" fill="#39606F"/>
<path d="M26.9067 6.68731C27.7945 7.20633 28.7684 7.2762 29.6861 7.2762C29.8484 7.2762 30.0107 7.2762 30.173 7.27287C30.3254 7.27287 30.4778 7.26954 30.6302 7.26954C30.6964 7.26954 30.7627 7.26954 30.8289 7.26954C32.8663 7.30281 34.5822 8.41737 36.4009 9.59846L36.8084 9.86462L37.1728 10.1008C39.2664 11.4483 41.4296 12.8423 42.5394 14.7853L42.7149 15.098C43.8015 17.0477 43.8843 19.6261 43.9638 22.1214L43.9771 22.5572L43.9936 23.043C44.0732 25.2155 44.146 27.2683 43.129 29.0416C43.0197 29.2312 42.9071 29.4175 42.7911 29.6072C42.2478 30.4955 41.6317 31.5002 41.6151 32.7246C41.5986 34.0454 42.3704 35.343 43.5365 35.9551C44.0334 36.218 44.6065 36.3544 45.1862 36.3544C45.9382 36.3544 46.6803 36.1215 47.2732 35.6956C48.3432 34.9271 48.9296 33.5364 48.7341 32.2289C48.6016 31.3439 48.1643 30.6286 47.7801 29.9998C47.6708 29.8201 47.5647 29.6471 47.472 29.4807C47.101 28.812 46.8823 28.0102 46.7366 27.388C46.3291 25.6547 46.2894 23.8115 46.286 22.2245C46.2827 21.0168 46.3192 20.052 46.4053 19.1869C46.4185 19.0572 46.4285 18.9241 46.4417 18.7844C46.5047 18.0491 46.5809 17.1342 46.9254 16.7017C47.0281 16.5719 47.1606 16.4388 47.2997 16.2958C47.6442 15.9464 48.0749 15.5106 48.3035 14.8818C48.6182 14.0201 48.5884 13.0419 48.2174 12.1902C48.2041 12.1536 48.1875 12.117 48.171 12.0804L48.0716 11.8875C48.0583 11.8608 48.0418 11.8342 48.0285 11.8109L47.9126 11.6279C47.8894 11.5947 47.8662 11.5614 47.843 11.5281C47.303 10.7729 46.4848 10.2472 45.5871 10.0776C45.4214 10.0443 45.2458 10.031 45.0703 10.031C44.6231 10.031 44.2189 10.1308 43.8644 10.2206C43.6723 10.2672 43.4901 10.3138 43.3278 10.3371C43.2847 10.3437 43.2383 10.347 43.192 10.347C42.6454 10.347 41.9 9.98107 41.3004 9.68829C41.1745 9.6284 41.052 9.56852 40.936 9.51196C40.1542 9.14266 39.3095 8.6802 38.2792 8.05805C36.921 7.2396 35.3674 6.26146 34.0953 5.02048C33.6381 4.57466 33.065 3.97579 32.6807 3.31039C32.5847 3.14404 32.4919 2.96438 32.3959 2.77806C32.0546 2.12264 31.6671 1.38071 30.978 0.811793C30.3453 0.289451 29.5304 0 28.6856 0C28.1887 0 27.7117 0.0998107 27.2678 0.292778C26.062 0.821775 25.204 2.06608 25.1311 3.38358C25.0582 4.70108 25.7704 6.03189 26.9067 6.6973V6.68731Z" fill="#39606F"/>
</svg>
